<?xml version="1.0" encoding="UTF-8"?>
<svg xmlns="http://www.w3.org/2000/svg" width="512" height="512" viewBox="0 0 128 128"><g><path d="M75.019,13.388a135.624,135.624,0,0,0-3.012,34.445l-6.9,7.677a20.387,20.387,0,0,0-5.221,13.624v48.56a4,4,0,0,0,4,4H97.859a4,4,0,0,0,4-4V69.134A20.383,20.383,0,0,0,96.637,55.51l-6.9-7.677a135.624,135.624,0,0,0-3.012-34.445Z" fill="#00ac93"/><rect x="68.112" y="67.397" width="25.522" height="41.089" rx="12.761" fill="#f7b521"/><path d="M74.918,6.306H86.829a2.5,2.5,0,0,1,2.5,2.5v4.581a0,0,0,0,1,0,0H72.418a0,0,0,0,1,0,0V8.806A2.5,2.5,0,0,1,74.918,6.306Z" fill="#f7b521"/><path d="M41.272,13.388A135.624,135.624,0,0,0,38.26,47.833l-6.9,7.677a20.383,20.383,0,0,0-5.222,13.624v48.56a4,4,0,0,0,4,4H64.112a4,4,0,0,0,4-4V69.134A20.387,20.387,0,0,0,62.891,55.51l-6.9-7.677a135.624,135.624,0,0,0-3.012-34.445Z" fill="#00cdb3"/><rect x="34.366" y="67.397" width="25.522" height="41.089" rx="12.761" fill="#ffcd38"/><path d="M41.171,6.306H53.082a2.5,2.5,0,0,1,2.5,2.5v4.581a0,0,0,0,1,0,0H38.671a0,0,0,0,1,0,0V8.806A2.5,2.5,0,0,1,41.171,6.306Z" fill="#ffcd38"/><g><path d="M26.142,100.919a1.75,1.75,0,0,0,1.75-1.75v-4.5a1.75,1.75,0,0,0-3.5,0v4.5A1.749,1.749,0,0,0,26.142,100.919Z"/><path d="M61.638,95.725V80.158a14.512,14.512,0,0,0-29.023,0V95.725a14.512,14.512,0,0,0,29.023,0Zm-25.523,0V80.158a11.012,11.012,0,0,1,22.023,0V95.725a11.012,11.012,0,0,1-22.023,0Z"/><path d="M97.938,54.34,91.523,47.2A135.408,135.408,0,0,0,91.3,33.139a1.75,1.75,0,1,0-3.492.227,127.565,127.565,0,0,1,.188,14.361A1.751,1.751,0,0,0,88.438,49l6.9,7.678a18.6,18.6,0,0,1,4.773,12.454v48.559a2.252,2.252,0,0,1-2.25,2.25H69.4a5.715,5.715,0,0,0,.459-2.25V105.15a14.5,14.5,0,0,0,25.523-9.425V80.158a14.5,14.5,0,0,0-25.523-9.425v-1.6a22.078,22.078,0,0,0-3.677-12.18c.078-.09.147-.186.226-.275L73.309,49a1.751,1.751,0,0,0,.445-1.275,135.89,135.89,0,0,1,2.667-32.589h8.9c.626,2.877,1.16,5.909,1.581,9.053a1.752,1.752,0,0,0,1.733,1.518,1.694,1.694,0,0,0,.234-.016,1.749,1.749,0,0,0,1.5-1.966c-.4-2.967-.891-5.842-1.468-8.589h.428a1.75,1.75,0,0,0,1.75-1.75V8.807a4.254,4.254,0,0,0-4.25-4.25H74.918a4.254,4.254,0,0,0-4.25,4.25v4.581a1.75,1.75,0,0,0,1.75,1.75h.424A137.977,137.977,0,0,0,70.223,47.2L64,54.126,57.777,47.2a137.969,137.969,0,0,0-2.619-32.062h.424a1.75,1.75,0,0,0,1.75-1.75V8.807a4.254,4.254,0,0,0-4.25-4.25H41.171a4.254,4.254,0,0,0-4.25,4.25v4.581a1.75,1.75,0,0,0,1.75,1.75H39.1A137.94,137.94,0,0,0,36.476,47.2l-6.414,7.14a22.1,22.1,0,0,0-5.67,14.794V85.015a1.75,1.75,0,0,0,3.5,0V69.134a18.608,18.608,0,0,1,4.773-12.455L39.562,49a1.751,1.751,0,0,0,.445-1.275,135.861,135.861,0,0,1,2.668-32.589h8.9a135.89,135.89,0,0,1,2.667,32.589A1.751,1.751,0,0,0,54.691,49l6.9,7.678a18.6,18.6,0,0,1,4.773,12.454v48.559a2.252,2.252,0,0,1-2.25,2.25H30.142a2.252,2.252,0,0,1-2.25-2.25v-9.286a1.75,1.75,0,0,0-3.5,0v9.286a5.756,5.756,0,0,0,5.75,5.75H97.858a5.756,5.756,0,0,0,5.75-5.75V69.134A22.1,22.1,0,0,0,97.938,54.34ZM74.168,8.807a.751.751,0,0,1,.75-.75H86.829a.751.751,0,0,1,.75.75v2.831H74.168Zm-33.747,0a.751.751,0,0,1,.75-.75H53.082a.751.751,0,0,1,.75.75v2.831H40.421Zm40.452,60.34A11.024,11.024,0,0,1,91.885,80.158V95.725a11.012,11.012,0,0,1-22.023,0V80.158A11.023,11.023,0,0,1,80.873,69.147Z"/></g></g></svg>
